<?xml version="1.0" encoding="UTF-8"?>
<svg width="529px" height="396px" viewBox="0 0 529 396" version="1.1" xmlns="http://www.w3.org/2000/svg" xmlns:xlink="http://www.w3.org/1999/xlink">
    <!-- Generator: Sketch 58 (84663) - https://sketch.com -->
    <title>calliope</title>
    <desc>Created with Sketch.</desc>
    <g id="页面-1" stroke="none" stroke-width="1" fill="none" fill-rule="evenodd">
        <g id="calliope" fill="#000000" fill-rule="nonzero">
            <g id="编组">
                <g transform="translate(140.630400, 0.000000)">
                    <path d="M0.163500723,26.2064814 C0.163500723,26.2064814 -2.10704964,101.394691 69.512596,153.740125 L69.512596,302.436013 C69.512596,302.436013 23.3879873,290.298843 0.163500723,270.754888 L0.163500723,26.2064814 Z" id="Fill-1_1_"></path>
                    <path d="M87.5472532,166.935407 C87.5472532,166.935407 109.993265,182.682606 156.896349,192.3301 L156.896349,307.415365 C156.896349,307.415365 119.14034,313.82628 87.5472532,307.788816 L87.5472532,166.935407 Z" id="Fill-3_1_"></path>
                    <path d="M173.633548,193.886148 C173.633548,193.886148 201.464008,197.994113 242.982644,188.159893 L242.982644,269.883502 C242.982644,269.883502 214.179091,292.103858 173.633548,302.311529 L173.633548,193.886148 Z" id="Fill-5_1_"></path>
                    <path d="M32.4053159,34.6091372 C33.4432817,37.4100225 34.4812476,40.1486659 35.6489592,42.8873093 C37.9195096,48.3645961 40.3846786,53.7173991 43.109339,58.9457183 C48.493787,69.4023568 54.6567094,79.4233019 61.5981062,88.8218281 C68.6043759,98.1581124 76.2593743,106.996462 84.8874656,114.901182 C93.4506841,122.805903 102.727504,129.839237 112.653053,135.876701 C132.50415,147.951629 154.820417,155.731866 177.850285,159.715347 C200.945026,163.636586 224.688495,163.947796 248.367092,162.329507 C236.689976,164.75694 224.883114,166.126262 212.946506,166.748681 C201.009898,167.246616 188.943545,166.997649 177.006937,165.441601 C153.133722,162.578474 129.584871,154.860479 108.825554,142.225374 C98.5107678,135.876701 88.8447106,128.469915 80.1517463,120.005018 C71.5236549,111.54012 63.674038,102.266078 56.9921326,92.1828905 C53.6187435,87.1412969 50.5048459,82.0374615 47.6504397,76.7469004 C44.7960335,71.4563393 42.2011188,66.0412944 39.8656956,60.5017657 C37.5951453,54.962237 35.5192135,49.3604664 33.7676461,43.6342121 C32.0160787,37.9079577 30.5240027,32.1194614 29.5509097,26.2687232 C30.394257,29.0696085 31.36735,31.8704938 32.4053159,34.6091372 Z" id="Fill-7_1_"></path>
                    <g transform="translate(11.112219, 0.000000)" id="路径">
                        <polygon points="8.88468202 0.50057856 0.256590651 33.3642993 34.2499732 23.8412893"></polygon>
                    </g>
                </g>
                <g transform="translate(0.000000, 352.396800)" id="Fill-12_1_">
                    <path d="M0.216770313,43.5408092 C0.216770313,43.5408092 262.311066,-53.550064 529.147411,43.5408092 C529.147411,43.5408092 244.304099,0.0471236538 0.216770313,43.5408092"></path>
                </g>
            </g>
        </g>
    </g>
</svg>